#N canvas 123 32 1690 988 12;
#X obj 50 287 dac~;
#X msg 51 133 250 \, 0 50;
#X text 139 131 <- command + 2;
#X obj 51 165 line;
#X text 104 163 <- command + 1;
#X obj 51 204 osc~;
#X obj 271 98 r test;
#N canvas 0 22 450 300 (subpatch) 0;
#X array sample_array 124439 float 0;
#X coords 0 1 124438 -1 250 200 1;
#X restore 443 144 graph;
#X obj 444 80 soundfiler;
#X floatatom 444 102 0 0 0 0 - - - 0;
#X obj 271 208 tabplay~ sample_array;
#X msg 444 54 read -resize audio.wav sample_array \;;
#X obj 444 27 loadbang;
#X connect 1 0 3 0;
#X connect 3 0 5 0;
#X connect 5 0 0 0;
#X connect 5 0 0 1;
#X connect 6 0 10 0;
#X connect 8 0 9 0;
#X connect 10 0 0 0;
#X connect 10 0 0 1;
#X connect 11 0 8 0;
#X connect 12 0 11 0;
